<svg width="16" height="16" viewBox="0 0 16 16" xmlns="http://www.w3.org/2000/svg">
  <!-- Background -->
  <rect width="16" height="16" fill="#1a1a1a"/>
  
  <!-- Track/Road -->
  <rect x="2" y="12" width="12" height="2" fill="#333"/>
  <rect x="3" y="13" width="2" height="1" fill="#666"/>
  <rect x="7" y="13" width="2" height="1" fill="#666"/>
  <rect x="11" y="13" width="2" height="1" fill="#666"/>
  
  <!-- Kart body -->
  <rect x="4" y="7" width="8" height="4" rx="1" fill="#ff4444"/>
  
  <!-- Kart details -->
  <rect x="5" y="8" width="6" height="1" fill="#ff6666"/>
  <rect x="6" y="9" width="4" height="1" fill="#cc3333"/>
  
  <!-- Wheels -->
  <circle cx="5" cy="11" r="1.5" fill="#222"/>
  <circle cx="11" cy="11" r="1.5" fill="#222"/>
  <circle cx="5" cy="11" r="0.8" fill="#444"/>
  <circle cx="11" cy="11" r="0.8" fill="#444"/>
  
  <!-- Driver helmet -->
  <circle cx="8" cy="6" r="1.2" fill="#4444ff"/>
  <circle cx="8" cy="6" r="0.8" fill="#6666ff"/>
  
  <!-- Speed lines -->
  <rect x="1" y="4" width="2" height="1" fill="#ffff44" opacity="0.7"/>
  <rect x="0" y="6" width="3" height="1" fill="#ffff44" opacity="0.5"/>
  <rect x="1" y="8" width="2" height="1" fill="#ffff44" opacity="0.3"/>
</svg>
